<?xml version="1.0" encoding="UTF-8" standalone="no"?>
<!-- Created with Inkscape (http://www.inkscape.org/) -->

<svg
   width="400"
   height="500"
   viewBox="0 0 105.83335 132.29169"
   version="1.1"
   id="svg11360"
   inkscape:version="1.2.1 (9c6d41e, 2022-07-14)"
   sodipodi:docname="ECCS.svg"
   xmlns:inkscape="http://www.inkscape.org/namespaces/inkscape"
   xmlns:sodipodi="http://sodipodi.sourceforge.net/DTD/sodipodi-0.dtd"
   xmlns="http://www.w3.org/2000/svg"
   xmlns:svg="http://www.w3.org/2000/svg">
  <sodipodi:namedview
     id="namedview11362"
     pagecolor="#ffffff"
     bordercolor="#000000"
     borderopacity="0.25"
     inkscape:showpageshadow="2"
     inkscape:pageopacity="0.0"
     inkscape:pagecheckerboard="0"
     inkscape:deskcolor="#d1d1d1"
     inkscape:document-units="mm"
     showgrid="false"
     inkscape:zoom="0.84096521"
     inkscape:cx="315.11411"
     inkscape:cy="378.13693"
     inkscape:window-width="1440"
     inkscape:window-height="900"
     inkscape:window-x="0"
     inkscape:window-y="0"
     inkscape:window-maximized="0"
     inkscape:current-layer="layer1" />
  <defs
     id="defs11357" />
  <g
     inkscape:label="Capa 1"
     inkscape:groupmode="layer"
     id="layer1">
    <g
       id="g2126"
       inkscape:export-filename="../logo_final.png"
       inkscape:export-xdpi="300"
       inkscape:export-ydpi="300"
       transform="matrix(2.0148539,0,0,2.0148539,-78.455516,-164.42596)">
      <g
         id="g2108">
        <circle
           style="fill:#224870;fill-opacity:1;stroke:none;stroke-width:0.786497;stroke-linecap:round;stroke-linejoin:round;stroke-opacity:1;paint-order:stroke fill markers"
           id="circle5121"
           cx="64.84124"
           cy="105.58199"
           r="9.7953777"
           inkscape:export-filename="../ECCS_Logo.png"
           inkscape:export-xdpi="300"
           inkscape:export-ydpi="300" />
        <path
           id="path5085"
           style="fill:#38c0ac;fill-opacity:1;stroke:none;stroke-width:0.672868;stroke-linecap:round;stroke-linejoin:round;paint-order:stroke fill markers"
           d="M 66.489991,83.832361 C 64.78716,83.4863 63.150027,83.317575 61.756093,83.381931 l 9.7e-5,-4.56e-4 c -15.42156,1.548548 -19.982165,13.748311 -19.800184,21.475665 0.598386,8.58228 6.688618,15.39339 14.753365,16.41254 -6.716452,-2.02045 -11.566877,-8.23889 -12.097582,-15.85046 -0.181972,-7.727356 4.378624,-19.92712 19.800183,-21.475658 l -8.7e-5,4.47e-4 c 1.095231,-0.05063 2.340917,0.04364 3.650299,0.25386 -0.526837,-0.137042 -1.052576,-0.259896 -1.572183,-0.365557 z"
           sodipodi:nodetypes="sccccccccs" />
        <path
           id="path5087"
           style="fill:#224870;fill-opacity:1;stroke:none;stroke-width:0.672868;stroke-linecap:round;stroke-linejoin:round;paint-order:stroke fill markers"
           d="m 63.992195,83.729081 c -15.421559,1.548548 -19.982184,13.748594 -19.800213,21.475959 0.656883,9.42116 7.931155,16.70915 17.171157,16.54255 0.135507,-0.0127 0.270819,-0.0254 0.406054,-0.0402 0.135293,-0.0151 0.270091,-0.0327 0.405092,-0.0494 0.134915,-0.0173 0.26942,-0.0365 0.403926,-0.0571 0.134312,-0.0219 0.268964,-0.0432 0.403052,-0.0667 0.133864,-0.024 0.267971,-0.0485 0.401544,-0.075 0.133457,-0.0263 0.267088,-0.0546 0.400068,-0.0838 0.133068,-0.0289 0.265251,-0.06 0.397638,-0.0918 0.13228,-0.0321 0.264007,-0.0656 0.395655,-0.10025 0.131659,-0.0351 0.262851,-0.0708 0.393731,-0.10866 0.130687,-0.0374 0.262161,-0.0765 0.392176,-0.11699 0.129987,-0.0406 0.259303,-0.0823 0.388464,-0.12533 0.129306,-0.0432 0.258234,-0.0873 0.386403,-0.13329 0.12817,-0.0461 0.25563,-0.0934 0.382759,-0.14209 0.127285,-0.0488 0.253394,-0.099 0.379445,-0.15034 0.12606,-0.0514 0.252072,-0.10435 0.376966,-0.15843 0.124904,-0.054 0.249468,-0.10955 0.373167,-0.16634 0.123766,-0.0568 0.246474,-0.11488 0.368909,-0.17436 0.122397,-0.0594 0.244093,-0.12056 0.365149,-0.1827 0.121026,-0.0621 0.241304,-0.12563 0.36093,-0.1907 0.05093,-0.0276 0.101133,-0.0563 0.151747,-0.0843 -0.184693,0.0507 -0.370406,0.098 -0.557033,0.14163 -0.411992,0.0866 -0.827727,0.15588 -1.246143,0.20778 -0.418484,0.0519 -0.839321,0.0863 -1.261352,0.10323 -0.422042,0.0171 -0.844948,0.0164 -1.26767,-0.002 -0.422576,-0.0182 -0.844579,-0.0541 -1.264919,-0.10729 -0.420496,-0.0534 -0.839059,-0.12372 -1.254462,-0.21164 -0.415258,-0.0879 -0.827095,-0.19298 -1.234393,-0.31511 -0.407503,-0.12183 -0.810107,-0.26071 -1.20686,-0.41585 -0.396705,-0.15521 -0.78722,-0.32663 -1.170522,-0.51395 -0.383177,-0.1873 -0.758822,-0.39031 -1.125963,-0.6085 -0.367179,-0.21831 -0.725535,-0.4516 -1.074132,-0.69931 -0.348783,-0.24758 -0.687545,-0.50934 -1.015384,-0.78463 -0.327664,-0.27536 -0.644151,-0.564 -0.948636,-0.86516 -0.30464,-0.30119 -0.597016,-0.61468 -0.876397,-0.93965 -0.279275,-0.32489 -0.545332,-0.66095 -0.797463,-1.00737 -0.252189,-0.34637 -0.490256,-0.70277 -0.713562,-1.06832 -0.223227,-0.36572 -0.431507,-0.74028 -0.624315,-1.1227 -0.192886,-0.38226 -0.370154,-0.77208 -0.531337,-1.16839 -0.161155,-0.39646 -0.306079,-0.79914 -0.434394,-1.20698 -0.128247,-0.40767 -0.239768,-0.82018 -0.334321,-1.23641 -0.09466,-0.41632 -0.172282,-0.83602 -0.232606,-1.25806 -0.06026,-0.4221 -0.103105,-0.84617 -0.128558,-1.27112 -0.02546,-0.42492 -0.03343,-0.85032 -0.02401,-1.27517 0.0097,-0.4248 0.03645,-0.8486 0.08066,-1.27039 0.04432,-0.42198 0.105894,-0.84155 0.18479,-1.25769 0.07892,-0.41596 0.174955,-0.82813 0.287934,-1.2354 0.11293,-0.407431 0.242626,-0.809657 0.388755,-1.205623 0.146246,-0.395918 0.308635,-0.785305 0.487049,-1.167072 0.178405,-0.381651 0.372555,-0.7554 0.582001,-1.120277 0.209553,-0.364934 0.43418,-0.720666 0.673336,-1.066289 0.23904,-0.345809 0.492385,-0.681248 0.759404,-1.005403 0.267098,-0.32401 0.547626,-0.636483 0.840866,-0.936643 2.688058,-3.028444 6.719854,-5.824806 10.367665,-6.653524 0.137782,-0.04888 0.276369,-0.09563 0.415871,-0.141309 0.139491,-0.04577 0.27977,-0.09038 0.420904,-0.132659 0.141134,-0.04228 0.283522,-0.08241 0.426288,-0.121356 0.142796,-0.03858 0.285748,-0.07532 0.43006,-0.110725 0.144516,-0.03547 0.289469,-0.06968 0.435317,-0.10119 0.145731,-0.03178 0.2929,-0.06123 0.440215,-0.08951 0.147267,-0.02741 0.294834,-0.05442 0.443549,-0.07911 0.148578,-0.02498 0.298819,-0.04694 0.448933,-0.06764 0.150124,-0.02051 0.300675,-0.03878 0.45213,-0.05627 0.151621,-0.01604 0.303989,-0.03178 0.456718,-0.04548 0.152738,-0.0137 0.30567,-0.02945 0.459983,-0.0346 l 0.0029,1.17e-4 c 0.154293,-0.0049 0.307323,-0.01701 0.460887,-0.0206 0.153535,-0.0039 0.306623,-0.0087 0.459546,-0.0087 0.152806,-0.0019 0.305204,6.22e-4 0.457281,0.0029 0.152029,0.0029 0.303941,0.0068 0.45527,0.01351 0.151494,0.0068 0.301783,0.01448 0.452295,0.02459 0.150551,0.0097 0.300374,0.02255 0.450021,0.03664 0.14957,0.01409 0.299053,0.03081 0.447757,0.04869 0.148929,0.01779 0.297245,0.03654 0.445046,0.05812 0.147859,0.02128 0.295524,0.0451 0.442266,0.07036 0.146712,0.02546 0.29289,0.052 0.438563,0.08076 0.14575,0.02818 0.290616,0.0588 0.435142,0.09165 0.144526,0.03236 0.288964,0.0658 0.432256,0.10224 0.143223,0.03596 0.285572,0.07289 0.427766,0.111861 0.142135,0.03956 0.284688,0.08047 0.425647,0.123077 0.140832,0.04257 0.280713,0.08659 0.420311,0.132436 0.139735,0.04597 0.279032,0.09466 0.41725,0.143913 0.13817,0.04918 0.27531,0.09964 0.412138,0.152214 0.136819,0.05258 0.273444,0.106778 0.408834,0.162641 0.135225,0.05588 0.270013,0.113494 0.40381,0.1727 0.133864,0.05909 0.266261,0.119676 0.398541,0.1817 0.07289,0.03421 0.144983,0.07036 0.217328,0.105641 -3.805399,-2.38573 -9.917575,-4.171024 -13.972666,-3.983804 z"
           sodipodi:nodetypes="cccsccccccccccsccsscscccscccccscccccscccccccsscccscccccccccccccccsccccsccsscccccccscccccccc" />
        <path
           style="fill:#38c0ac;fill-opacity:1;stroke:none;stroke-width:2.98295;stroke-linecap:round;stroke-linejoin:round;paint-order:stroke markers fill"
           d="m 57.365132,91.741628 c 0,0 4.698599,-4.309052 10.511483,-4.618501 3.495235,-0.186079 6.268851,0.333855 8.797139,1.074227 2.559019,0.749364 5.091005,2.615176 5.091005,2.615176 0,0 -4.252556,-1.993319 -6.778096,-2.443173 -4.295275,-0.765077 -7.857457,-0.685046 -11.84816,0.536531 -3.24843,0.994368 -5.773371,2.83574 -5.773371,2.83574 z"
           id="path5091"
           sodipodi:nodetypes="csscssc" />
        <path
           id="path5095"
           style="fill:#38c0ac;fill-opacity:1;stroke:none;stroke-width:0.672868;stroke-linecap:round;stroke-linejoin:round;paint-order:stroke fill markers"
           d="m 63.91369,127.14125 c 1.702831,0.34607 3.339964,0.51479 4.733898,0.45043 l -9.7e-5,4.6e-4 c 15.42156,-1.54855 19.982165,-13.74831 19.800184,-21.47567 -0.598386,-8.582269 -6.688618,-15.39338 -14.753365,-16.412535 6.716452,2.020446 11.566877,8.238896 12.097582,15.850465 0.181972,7.72735 -4.378624,19.92712 -19.800183,21.47565 l 8.7e-5,-4.4e-4 c -1.095231,0.0506 -2.340917,-0.0436 -3.650299,-0.25386 0.526837,0.13704 1.052576,0.25989 1.572183,0.36555 z"
           sodipodi:nodetypes="sccccccccs" />
        <path
           id="path5097"
           style="fill:#224870;fill-opacity:1;stroke:none;stroke-width:0.672868;stroke-linecap:round;stroke-linejoin:round;paint-order:stroke fill markers"
           d="M 66.411486,127.24453 C 81.833045,125.69599 86.39367,113.49594 86.211699,105.76858 85.554816,96.347419 78.280544,89.059425 69.040542,89.226022 c -0.135507,0.01273 -0.270819,0.02536 -0.406054,0.04023 -0.135293,0.01506 -0.270091,0.03265 -0.405092,0.04937 -0.134915,0.0173 -0.26942,0.03654 -0.403926,0.05715 -0.134312,0.02187 -0.268964,0.04325 -0.403052,0.06667 -0.133864,0.02401 -0.267971,0.0485 -0.401544,0.07503 -0.133457,0.02634 -0.267088,0.05462 -0.400068,0.08377 -0.133068,0.02886 -0.265251,0.05996 -0.397638,0.09184 -0.13228,0.03207 -0.264007,0.0656 -0.395655,0.100248 -0.131659,0.03508 -0.262851,0.07085 -0.393731,0.108664 -0.130687,0.03742 -0.262161,0.07649 -0.392176,0.116983 -0.129987,0.04062 -0.259303,0.08232 -0.388464,0.125332 -0.129306,0.04325 -0.258234,0.08727 -0.386403,0.133291 -0.12817,0.04607 -0.25563,0.0934 -0.382759,0.142096 -0.127285,0.04879 -0.253394,0.09898 -0.379445,0.150338 -0.12606,0.05141 -0.252072,0.104349 -0.376966,0.158433 -0.124904,0.05404 -0.249468,0.109548 -0.373167,0.166334 -0.123766,0.05676 -0.246474,0.114884 -0.368909,0.174362 -0.122397,0.05938 -0.244093,0.12056 -0.365149,0.182701 -0.121026,0.0621 -0.241304,0.125633 -0.36093,0.190699 -0.05093,0.0276 -0.101133,0.05627 -0.151747,0.08426 0.184693,-0.05073 0.370406,-0.09795 0.557033,-0.14163 0.411992,-0.08659 0.827727,-0.155887 1.246143,-0.207784 0.418484,-0.0519 0.839321,-0.0863 1.261352,-0.103232 0.422042,-0.0171 0.844948,-0.01642 1.26767,0.0019 0.422576,0.01817 0.844579,0.05413 1.264919,0.107294 0.420496,0.05335 0.839059,0.123718 1.254462,0.211633 0.415258,0.08795 0.827095,0.192983 1.234393,0.315117 0.407503,0.121823 0.810107,0.260702 1.20686,0.41585 0.396705,0.155207 0.78722,0.326624 1.170522,0.513951 0.383177,0.187297 0.758822,0.3903 1.125963,0.608493 0.367179,0.21831 0.725535,0.451606 1.074132,0.699315 0.348783,0.247582 0.687545,0.509334 1.015384,0.784624 0.327664,0.275368 0.644151,0.564001 0.948636,0.865162 0.30464,0.301191 0.597016,0.614685 0.876397,0.939647 0.279275,0.324894 0.545332,0.660954 0.797463,1.007375 0.252189,0.346372 0.490256,0.702774 0.713562,1.068321 0.223227,0.365722 0.431507,0.740278 0.624315,1.122697 0.192886,0.382264 0.370154,0.772074 0.531337,1.168394 0.161155,0.39646 0.306079,0.79913 0.434394,1.20698 0.128247,0.40766 0.239768,0.82018 0.334321,1.23641 0.09466,0.41632 0.172282,0.83602 0.232606,1.25806 0.06025,0.4221 0.103105,0.84617 0.128558,1.27112 0.02546,0.42492 0.03343,0.85032 0.02401,1.27517 -0.0097,0.42479 -0.03645,0.84859 -0.08066,1.27039 -0.04432,0.42197 -0.105894,0.84155 -0.18479,1.25769 -0.07891,0.41596 -0.174955,0.82812 -0.287934,1.23539 -0.11293,0.40744 -0.242626,0.80966 -0.388755,1.20563 -0.146246,0.39592 -0.308635,0.7853 -0.487049,1.16707 -0.178405,0.38165 -0.372555,0.7554 -0.582001,1.12028 -0.209553,0.36493 -0.43418,0.72066 -0.673336,1.06629 -0.23904,0.34581 -0.492385,0.68124 -0.759404,1.0054 -0.267098,0.32401 -0.547626,0.63648 -0.840866,0.93664 -2.688058,3.02845 -6.719854,5.82481 -10.367665,6.65353 -0.137782,0.0489 -0.276369,0.0956 -0.415871,0.14131 -0.139491,0.0458 -0.27977,0.0904 -0.420904,0.13265 -0.141134,0.0423 -0.283522,0.0824 -0.426288,0.12136 -0.142796,0.0386 -0.285748,0.0753 -0.43006,0.11073 -0.144516,0.0355 -0.289469,0.0697 -0.435317,0.10119 -0.145731,0.0318 -0.2929,0.0612 -0.440215,0.0895 -0.147267,0.0274 -0.294834,0.0544 -0.443549,0.0791 -0.148578,0.025 -0.298819,0.0469 -0.448933,0.0677 -0.150124,0.0205 -0.300675,0.0388 -0.45213,0.0563 -0.151621,0.016 -0.303989,0.0318 -0.456718,0.0455 -0.152738,0.0137 -0.30567,0.0294 -0.459983,0.0346 l -0.0029,-1.2e-4 c -0.154293,0.005 -0.307323,0.017 -0.460887,0.0206 -0.153535,0.004 -0.306623,0.009 -0.459546,0.009 -0.152806,0.002 -0.305204,-6.2e-4 -0.457281,-0.003 -0.152029,-0.003 -0.303941,-0.007 -0.45527,-0.0135 -0.151494,-0.007 -0.301783,-0.0145 -0.452295,-0.0246 -0.150551,-0.01 -0.300374,-0.0226 -0.450021,-0.0366 -0.14957,-0.0141 -0.299053,-0.0308 -0.447757,-0.0487 -0.148929,-0.0178 -0.297245,-0.0365 -0.445046,-0.0581 -0.147859,-0.0213 -0.295524,-0.0451 -0.442266,-0.0704 -0.146712,-0.0255 -0.29289,-0.052 -0.438563,-0.0808 -0.14575,-0.0282 -0.290616,-0.0588 -0.435142,-0.0917 -0.144526,-0.0324 -0.288964,-0.0658 -0.432256,-0.10224 -0.143223,-0.036 -0.285572,-0.0729 -0.427766,-0.11186 -0.142135,-0.0396 -0.284688,-0.0805 -0.425647,-0.12308 -0.140832,-0.0426 -0.280713,-0.0866 -0.420311,-0.13243 -0.139735,-0.046 -0.279032,-0.0947 -0.41725,-0.14392 -0.13817,-0.0492 -0.27531,-0.0996 -0.412138,-0.15221 -0.136819,-0.0526 -0.273444,-0.10678 -0.408834,-0.16264 -0.135225,-0.0559 -0.270013,-0.1135 -0.40381,-0.1727 -0.133864,-0.0591 -0.266261,-0.11968 -0.398541,-0.1817 -0.07289,-0.0342 -0.144983,-0.0704 -0.217328,-0.10564 3.805399,2.38573 9.917575,4.17102 13.972666,3.9838 z"
           sodipodi:nodetypes="cccsccccccccccsccsscscccscccccscccccscccccccsscccscccccccccccccccsccccsccsscccccccscccccccc" />
        <path
           style="fill:#38c0ac;fill-opacity:1;stroke:none;stroke-width:2.98295;stroke-linecap:round;stroke-linejoin:round;paint-order:stroke markers fill"
           d="m 73.038549,119.23199 c 0,0 -4.698599,4.30905 -10.511483,4.6185 -3.495235,0.18608 -6.268851,-0.33385 -8.797139,-1.07422 -2.559019,-0.74937 -5.091005,-2.61518 -5.091005,-2.61518 0,0 4.252556,1.99332 6.778096,2.44317 4.295275,0.76508 7.857457,0.68505 11.84816,-0.53653 3.24843,-0.99437 5.773371,-2.83574 5.773371,-2.83574 z"
           id="path5101"
           sodipodi:nodetypes="csscssc" />
        <path
           id="path5107"
           style="fill:#38c0ac;fill-opacity:1;stroke:none;stroke-width:1.00679;stroke-linecap:round;stroke-linejoin:round;stroke-opacity:1;paint-order:stroke fill markers"
           d="m 65.202068,92.94794 a 12.53903,12.53903 0 0 0 -12.5393,12.53883 12.53903,12.53903 0 0 0 12.5393,12.53884 12.53903,12.53903 0 0 0 12.53885,-12.53884 12.53903,12.53903 0 0 0 -12.53885,-12.53883 z m 0,3.820067 a 8.7188721,8.7188721 0 0 1 8.71878,8.718763 8.7188721,8.7188721 0 0 1 -8.71878,8.71878 8.7188721,8.7188721 0 0 1 -8.71877,-8.71878 8.7188721,8.7188721 0 0 1 8.71877,-8.718763 z" />
      </g>
      <g
         id="g5119"
         transform="matrix(1.7433517,0,0,1.7433517,-294.97048,-67.805792)"
         style="fill:#224870;fill-opacity:1">
        <path
           d="m 193.55141,114.12882 h 5.31255 q 0.0688,0 0.0918,0.0574 0.0344,0.0459 -0.0109,0.10327 l -0.84909,1.11299 q -0.14916,0.18359 -0.37866,0.18359 h -2.83412 v 1.83588 h 2.86854 q 0.13769,0 0.13769,0.13768 V 118.73 q 0,0.14917 -0.13769,0.14917 h -2.86854 v 1.82439 h 3.62584 q 0.0574,0 0.0918,0.0459 0.0459,0.0344 0.0459,0.0918 v 1.18184 q 0,0.13769 -0.13769,0.13769 H 193.552 q -0.0574,0 -0.10326,-0.0344 -0.0344,-0.0459 -0.0344,-0.10327 v -7.75656 q 0,-0.0574 0.0344,-0.0918 0.0459,-0.0459 0.10326,-0.0459 z"
           style="font-size:46.3644px;font-family:VALORANT;-inkscape-font-specification:'VALORANT, Normal';fill:#224870;fill-opacity:1;stroke-width:1.10007;stroke-linecap:round;stroke-linejoin:round;paint-order:stroke fill markers"
           id="path5111" />
        <path
           d="m 198.72673,118.11036 q 0,-0.88351 0.32129,-1.6408 0.33274,-0.7573 0.88351,-1.31954 0.56222,-0.56223 1.31952,-0.87204 0.7573,-0.32127 1.62934,-0.3098 0.92941,0.0115 1.70966,0.37865 0.79172,0.36718 1.36543,1.00973 0.0344,0.0459 0.023,0.10327 0,0.0573 -0.0459,0.0918 l -0.90646,0.76877 q -0.0459,0.0344 -0.10327,0.0344 -0.0574,-0.0115 -0.0918,-0.0574 -0.37864,-0.43602 -0.89499,-0.68845 -0.51635,-0.2639 -1.11299,-0.25243 -0.5393,0.0115 -1.0212,0.24095 -0.48193,0.21802 -0.83762,0.60814 -0.35571,0.37865 -0.56224,0.88351 -0.20653,0.50487 -0.20653,1.07858 0,0.57371 0.218,1.07857 0.21801,0.50487 0.58519,0.88351 0.36717,0.37865 0.84909,0.59666 0.48191,0.20654 1.03268,0.20654 0.5737,-0.0115 1.07857,-0.26391 0.50487,-0.25243 0.87204,-0.68845 0.0344,-0.0459 0.0918,-0.0459 0.0574,-0.0115 0.10327,0.0344 l 0.90646,0.76877 q 0.0459,0.0344 0.0459,0.0918 0.0109,0.0573 -0.023,0.10327 -0.58519,0.65403 -1.38838,1.03268 -0.8032,0.36717 -1.75555,0.3557 -0.86057,0 -1.61787,-0.32128 -0.74582,-0.33275 -1.29657,-0.895 -0.55077,-0.5737 -0.86057,-1.34247 -0.30981,-0.76877 -0.30981,-1.65229 z"
           style="font-size:46.3644px;font-family:VALORANT;-inkscape-font-specification:'VALORANT, Normal';fill:#224870;fill-opacity:1;stroke-width:1.10007;stroke-linecap:round;stroke-linejoin:round;paint-order:stroke fill markers"
           id="path5113" />
        <path
           d="m 206.29894,118.11036 q 0,-0.88351 0.32127,-1.6408 0.33276,-0.7573 0.88351,-1.31954 0.56224,-0.56223 1.31954,-0.87204 0.75728,-0.32127 1.62932,-0.3098 0.92941,0.0115 1.70966,0.37865 0.79172,0.36718 1.36542,1.00973 0.0344,0.0459 0.023,0.10327 0,0.0573 -0.0459,0.0918 l -0.90646,0.76877 q -0.0459,0.0344 -0.10327,0.0344 -0.0574,-0.0115 -0.0918,-0.0574 -0.37864,-0.43602 -0.89498,-0.68845 -0.51633,-0.2639 -1.113,-0.25243 -0.53927,0.0115 -1.02118,0.24095 -0.48192,0.21802 -0.83762,0.60814 -0.35571,0.37865 -0.56224,0.88351 -0.20653,0.50487 -0.20653,1.07858 0,0.57371 0.21801,1.07857 0.218,0.50487 0.58519,0.88351 0.36716,0.37865 0.84909,0.59666 0.4819,0.20654 1.03265,0.20654 0.57372,-0.0115 1.07857,-0.26391 0.50488,-0.25243 0.87204,-0.68845 0.0344,-0.0459 0.0918,-0.0459 0.0574,-0.0115 0.10327,0.0344 l 0.90646,0.76877 q 0.0459,0.0344 0.0459,0.0918 0.0109,0.0573 -0.023,0.10327 -0.58517,0.65403 -1.38837,1.03268 -0.80319,0.36717 -1.75555,0.3557 -0.86057,0 -1.61785,-0.32128 -0.74582,-0.33275 -1.29659,-0.895 -0.55077,-0.5737 -0.86057,-1.34247 -0.30979,-0.76877 -0.30979,-1.65229 z"
           style="font-size:46.3644px;font-family:VALORANT;-inkscape-font-specification:'VALORANT, Normal';fill:#224870;fill-opacity:1;stroke-width:1.10007;stroke-linecap:round;stroke-linejoin:round;paint-order:stroke fill markers"
           id="path5115" />
        <path
           d="m 213.97438,116.48103 q 0,-0.53929 0.21802,-0.99826 0.22948,-0.45896 0.60814,-0.79171 0.39011,-0.33276 0.89497,-0.52782 0.51635,-0.19506 1.09006,-0.19506 0.89499,0 1.54902,0.32128 0.66549,0.3098 0.99826,0.72287 0.0803,0.10327 -0.0109,0.18359 l -0.79172,0.82614 q -0.0459,0.0459 -0.11474,0.0459 -0.0574,0 -0.10327,-0.0574 -0.10326,-0.11473 -0.2639,-0.22948 -0.14916,-0.11474 -0.35571,-0.20654 -0.19506,-0.10326 -0.42454,-0.16063 -0.22948,-0.0573 -0.47045,-0.0573 -0.28685,0 -0.5278,0.0918 -0.22948,0.0803 -0.39013,0.218 -0.16064,0.13769 -0.25243,0.32129 -0.0918,0.18358 -0.0918,0.39012 0,0.33274 0.218,0.57371 0.21801,0.24095 0.65404,0.33274 l 1.12446,0.21802 q 0.55077,0.10326 0.96383,0.33275 0.42456,0.21801 0.69993,0.52781 0.28687,0.3098 0.43603,0.69993 0.14916,0.37865 0.14916,0.80319 0,0.45897 -0.19505,0.90646 -0.1836,0.4475 -0.56225,0.80319 -0.36716,0.3557 -0.90646,0.57372 -0.53929,0.20653 -1.2392,0.20653 -0.4934,0 -0.92943,-0.10326 -0.42454,-0.10327 -0.78023,-0.26391 -0.34424,-0.17211 -0.60814,-0.36718 -0.2639,-0.20653 -0.43603,-0.40159 -0.0803,-0.0803 0,-0.18359 l 0.72288,-0.92941 q 0.0344,-0.0574 0.0918,-0.0574 0.0688,-0.0115 0.11474,0.0344 0.16064,0.14916 0.35571,0.3098 0.19506,0.14917 0.42454,0.27539 0.2295,0.12621 0.4934,0.20653 0.2639,0.0803 0.56224,0.0803 0.63107,0 0.96383,-0.27538 0.33275,-0.27538 0.33275,-0.71141 0,-0.34422 -0.25243,-0.59665 -0.24097,-0.26391 -0.72288,-0.3557 l -1.12446,-0.22948 q -0.96385,-0.19507 -1.53755,-0.79173 -0.57372,-0.59665 -0.57372,-1.51459 z"
           style="font-size:46.3644px;font-family:VALORANT;-inkscape-font-specification:'VALORANT, Normal';fill:#224870;fill-opacity:1;stroke-width:1.10007;stroke-linecap:round;stroke-linejoin:round;paint-order:stroke fill markers"
           id="path5117" />
      </g>
    </g>
  </g>
</svg>
