<?xml version="1.0" encoding="UTF-8" standalone="no"?>
<!-- Created with Inkscape (http://www.inkscape.org/) -->

<svg
   width="400"
   height="500"
   viewBox="0 0 105.83335 132.29169"
   version="1.1"
   id="svg11360"
   inkscape:version="1.2.1 (9c6d41e, 2022-07-14)"
   sodipodi:docname="ECCS_degradado_contorno.svg"
   inkscape:export-filename="ECCS_degradado_contorno.png"
   inkscape:export-xdpi="300"
   inkscape:export-ydpi="300"
   xmlns:inkscape="http://www.inkscape.org/namespaces/inkscape"
   xmlns:sodipodi="http://sodipodi.sourceforge.net/DTD/sodipodi-0.dtd"
   xmlns:xlink="http://www.w3.org/1999/xlink"
   xmlns="http://www.w3.org/2000/svg"
   xmlns:svg="http://www.w3.org/2000/svg">
  <sodipodi:namedview
     id="namedview11362"
     pagecolor="#ffffff"
     bordercolor="#000000"
     borderopacity="0.25"
     inkscape:showpageshadow="2"
     inkscape:pageopacity="0.0"
     inkscape:pagecheckerboard="0"
     inkscape:deskcolor="#d1d1d1"
     inkscape:document-units="mm"
     showgrid="false"
     inkscape:zoom="0.84096521"
     inkscape:cx="214.63432"
     inkscape:cy="316.89777"
     inkscape:window-width="1440"
     inkscape:window-height="847"
     inkscape:window-x="0"
     inkscape:window-y="25"
     inkscape:window-maximized="0"
     inkscape:current-layer="g526" />
  <defs
     id="defs11357">
    <linearGradient
       inkscape:collect="always"
       xlink:href="#linearGradient7741"
       id="linearGradient7743"
       x1="97.331642"
       y1="53.471031"
       x2="118.13395"
       y2="40.449146"
       gradientUnits="userSpaceOnUse"
       gradientTransform="translate(34.141973,10.045192)" />
    <linearGradient
       inkscape:collect="always"
       id="linearGradient7741">
      <stop
         style="stop-color:#5393c3;stop-opacity:1;"
         offset="0"
         id="stop7737" />
      <stop
         style="stop-color:#3dc4b7;stop-opacity:1;"
         offset="1"
         id="stop7739" />
    </linearGradient>
    <linearGradient
       inkscape:collect="always"
       xlink:href="#linearGradient5712"
       id="linearGradient5714"
       x1="85.842262"
       y1="58.466301"
       x2="94.85025"
       y2="27.369257"
       gradientUnits="userSpaceOnUse"
       gradientTransform="translate(34.141973,10.045192)" />
    <linearGradient
       inkscape:collect="always"
       id="linearGradient5712">
      <stop
         style="stop-color:#5099c1;stop-opacity:1"
         offset="0"
         id="stop5708" />
      <stop
         style="stop-color:#3acbb5;stop-opacity:1"
         offset="1"
         id="stop5710" />
    </linearGradient>
  </defs>
  <g
     inkscape:label="Capa 1"
     inkscape:groupmode="layer"
     id="layer1">
    <g
       id="g526"
       transform="matrix(1.9877915,0,0,1.9877915,-226.08523,-62.880035)">
      <g
         id="g1481"
         style="fill:#ff8080;stroke:#ffffff;stroke-width:0.54734111;stroke-dasharray:none;stroke-linejoin:round;stroke-linecap:round"
         inkscape:export-filename="ECCS_degradado_contorno.png"
         inkscape:export-xdpi="300"
         inkscape:export-ydpi="300">
        <circle
           style="fill:#ff8080;fill-opacity:1;stroke:#ffffff;stroke-width:0.54734111;stroke-linecap:round;stroke-linejoin:round;stroke-opacity:1;paint-order:stroke fill markers;stroke-dasharray:none"
           id="circle1455"
           cx="139.9593"
           cy="55.64283"
           r="9.7953777"
           inkscape:export-filename="../ECCS_Logo_deg.png"
           inkscape:export-xdpi="300"
           inkscape:export-ydpi="300" />
        <path
           id="path1457"
           style="fill:#ff8080;fill-opacity:1;stroke:#ffffff;stroke-width:0.54734111;stroke-linecap:round;stroke-linejoin:round;stroke-opacity:1;paint-order:stroke fill markers;stroke-dasharray:none"
           d="m 140.32014,43.008774 a 12.53903,12.53903 0 0 0 -12.53929,12.53883 12.53903,12.53903 0 0 0 12.53929,12.538838 12.53903,12.53903 0 0 0 12.53885,-12.538838 12.53903,12.53903 0 0 0 -12.53885,-12.53883 z m 0,3.820067 a 8.7188721,8.7188721 0 0 1 8.71878,8.718763 8.7188721,8.7188721 0 0 1 -8.71878,8.718778 8.7188721,8.7188721 0 0 1 -8.71876,-8.718778 8.7188721,8.7188721 0 0 1 8.71876,-8.718763 z" />
        <path
           id="path1459"
           style="fill:#ff8080;fill-opacity:1;stroke:#ffffff;stroke-width:0.54734111;stroke-linecap:round;stroke-linejoin:round;paint-order:stroke fill markers;stroke-dasharray:none"
           d="m 139.11027,33.789915 c -15.42155,1.548548 -19.98218,13.748594 -19.80021,21.475959 0.65689,9.421158 7.93116,16.709148 17.17115,16.542548 0.13551,-0.0127 0.27082,-0.0254 0.40605,-0.0402 0.1353,-0.0151 0.27009,-0.0327 0.40509,-0.0494 0.13492,-0.0173 0.26942,-0.0365 0.40393,-0.0571 0.13431,-0.0219 0.26896,-0.0432 0.40305,-0.0667 0.13387,-0.024 0.26797,-0.0485 0.40155,-0.075 0.13345,-0.0263 0.26709,-0.0546 0.40007,-0.0838 0.13306,-0.0289 0.26525,-0.06 0.39763,-0.0918 0.13228,-0.0321 0.26401,-0.0656 0.39566,-0.10025 0.13166,-0.0351 0.26285,-0.0708 0.39373,-0.10866 0.13069,-0.0374 0.26216,-0.0765 0.39218,-0.11699 0.12998,-0.0406 0.2593,-0.0823 0.38846,-0.12533 0.12931,-0.0432 0.25823,-0.0873 0.3864,-0.13329 0.12817,-0.0461 0.25563,-0.0934 0.38276,-0.14209 0.12729,-0.0488 0.2534,-0.099 0.37945,-0.15034 0.12606,-0.0514 0.25207,-0.10435 0.37696,-0.15843 0.12491,-0.054 0.24947,-0.10955 0.37317,-0.16634 0.12376,-0.0568 0.24647,-0.11488 0.36891,-0.17436 0.1224,-0.0594 0.24409,-0.12056 0.36515,-0.1827 0.12102,-0.0621 0.2413,-0.12563 0.36093,-0.1907 0.0509,-0.0276 0.10113,-0.0563 0.15174,-0.0843 -0.18469,0.0507 -0.3704,0.098 -0.55703,0.14163 -0.41199,0.0866 -0.82773,0.15588 -1.24614,0.20778 -0.41849,0.0519 -0.83932,0.0863 -1.26135,0.10323 -0.42205,0.0171 -0.84495,0.0164 -1.26767,-0.002 -0.42258,-0.0182 -0.84458,-0.0541 -1.26492,-0.10729 -0.4205,-0.0534 -0.83906,-0.12372 -1.25447,-0.21164 -0.41525,-0.0879 -0.82709,-0.19298 -1.23439,-0.31511 -0.4075,-0.12183 -0.8101,-0.26071 -1.20686,-0.41585 -0.3967,-0.15521 -0.78721,-0.32663 -1.17051,-0.51395 -0.38318,-0.1873 -0.75882,-0.39031 -1.12596,-0.6085 -0.36718,-0.21831 -0.72554,-0.4516 -1.07413,-0.69931 -0.34879,-0.24758 -0.68755,-0.50934 -1.01539,-0.78463 -0.32766,-0.27536 -0.64415,-0.564 -0.94863,-0.86516 -0.30464,-0.30119 -0.59702,-0.61468 -0.8764,-0.93965 -0.27928,-0.32489 -0.54533,-0.66095 -0.79746,-1.00737 -0.25219,-0.34637 -0.49026,-0.70277 -0.71357,-1.06832 -0.22322,-0.36572 -0.4315,-0.740278 -0.62431,-1.122698 -0.19289,-0.38226 -0.37016,-0.77208 -0.53134,-1.16839 -0.16115,-0.39646 -0.30608,-0.79914 -0.43439,-1.20698 -0.12825,-0.40767 -0.23977,-0.82018 -0.33432,-1.23641 -0.0947,-0.41632 -0.17229,-0.83602 -0.23261,-1.25806 -0.0603,-0.4221 -0.1031,-0.84617 -0.12856,-1.27112 -0.0255,-0.42492 -0.0334,-0.85032 -0.024,-1.27517 0.01,-0.4248 0.0365,-0.8486 0.0807,-1.27039 0.0443,-0.42198 0.1059,-0.84155 0.18479,-1.25769 0.0789,-0.41596 0.17496,-0.82813 0.28794,-1.2354 0.11293,-0.407431 0.24262,-0.809657 0.38875,-1.205623 0.14625,-0.395918 0.30864,-0.785305 0.48705,-1.167072 0.17841,-0.381651 0.37256,-0.7554 0.582,-1.120277 0.20955,-0.364934 0.43418,-0.720666 0.67334,-1.066289 0.23904,-0.345809 0.49238,-0.681248 0.7594,-1.005403 0.2671,-0.32401 0.54763,-0.636483 0.84087,-0.936643 2.68806,-3.028444 6.71984,-5.824806 10.36765,-6.653524 0.13778,-0.04888 0.27637,-0.09563 0.41587,-0.141309 0.13949,-0.04577 0.27977,-0.09038 0.42091,-0.132659 0.14113,-0.04228 0.28352,-0.08241 0.42629,-0.121356 0.14279,-0.03858 0.28574,-0.07532 0.43005,-0.110725 0.14452,-0.03547 0.28947,-0.06968 0.43532,-0.10119 0.14573,-0.03178 0.2929,-0.06123 0.44022,-0.08951 0.14726,-0.02741 0.29483,-0.05442 0.44355,-0.07911 0.14857,-0.02498 0.29881,-0.04694 0.44893,-0.06764 0.15012,-0.02051 0.30067,-0.03878 0.45213,-0.05627 0.15162,-0.01604 0.30399,-0.03178 0.45672,-0.04548 0.15273,-0.0137 0.30567,-0.02945 0.45998,-0.0346 l 0.003,1.17e-4 c 0.15429,-0.0049 0.30732,-0.01701 0.46089,-0.0206 0.15353,-0.0039 0.30662,-0.0087 0.45954,-0.0087 0.15281,-0.0019 0.30521,6.22e-4 0.45728,0.0029 0.15203,0.0029 0.30394,0.0068 0.45527,0.01351 0.1515,0.0068 0.30179,0.01448 0.4523,0.02459 0.15055,0.0097 0.30037,0.02255 0.45002,0.03664 0.14957,0.01409 0.29905,0.03081 0.44776,0.04869 0.14893,0.01779 0.29724,0.03654 0.44504,0.05812 0.14786,0.02128 0.29553,0.0451 0.44227,0.07036 0.14671,0.02546 0.29289,0.052 0.43856,0.08076 0.14575,0.02818 0.29062,0.0588 0.43514,0.09165 0.14453,0.03236 0.28897,0.0658 0.43226,0.10224 0.14322,0.03596 0.28557,0.07289 0.42777,0.111861 0.14213,0.03956 0.28468,0.08047 0.42564,0.123077 0.14083,0.04257 0.28072,0.08659 0.42031,0.132436 0.13974,0.04597 0.27904,0.09466 0.41725,0.143913 0.13817,0.04918 0.27531,0.09964 0.41214,0.152214 0.13682,0.05258 0.27345,0.106778 0.40884,0.162641 0.13522,0.05588 0.27001,0.113494 0.40381,0.1727 0.13386,0.05909 0.26626,0.119676 0.39854,0.1817 0.0729,0.03421 0.14498,0.07036 0.21732,0.105641 -3.80539,-2.38573 -9.91757,-4.171024 -13.97266,-3.983804 z"
           sodipodi:nodetypes="cccsccccccccccsccsscscccscccccscccccscccccccsscccscccccccccccccccsccccsccsscccccccscccccccc" />
        <path
           style="fill:#ff8080;fill-opacity:1;stroke:#ffffff;stroke-width:0.54734111;stroke-linecap:round;stroke-linejoin:round;paint-order:stroke markers fill;stroke-dasharray:none"
           d="m 132.48321,41.802462 c 0,0 4.69859,-4.309052 10.51147,-4.618501 3.49524,-0.186079 6.26886,0.333855 8.79714,1.074227 2.55902,0.749364 5.09101,2.615176 5.09101,2.615176 0,0 -4.25256,-1.993319 -6.7781,-2.443173 -4.29527,-0.765077 -7.85745,-0.685046 -11.84816,0.536531 -3.24843,0.994368 -5.77336,2.83574 -5.77336,2.83574 z"
           id="path1461"
           sodipodi:nodetypes="csscssc" />
        <path
           id="path1463"
           style="fill:#ff8080;fill-opacity:1;stroke:#ffffff;stroke-width:0.54734111;stroke-linecap:round;stroke-linejoin:round;paint-order:stroke fill markers;stroke-dasharray:none"
           d="m 141.52956,77.305362 c 15.42155,-1.54854 19.98218,-13.74859 19.80021,-21.475948 -0.65688,-9.421161 -7.93116,-16.709155 -17.17116,-16.542558 -0.13551,0.01273 -0.27082,0.02536 -0.40605,0.04023 -0.13529,0.01506 -0.27009,0.03265 -0.40509,0.04937 -0.13492,0.0173 -0.26942,0.03654 -0.40393,0.05715 -0.13431,0.02187 -0.26896,0.04325 -0.40305,0.06667 -0.13387,0.02401 -0.26797,0.0485 -0.40155,0.07503 -0.13345,0.02634 -0.26708,0.05462 -0.40006,0.08377 -0.13307,0.02886 -0.26525,0.05996 -0.39764,0.09184 -0.13228,0.03207 -0.26401,0.0656 -0.39566,0.100248 -0.13166,0.03508 -0.26285,0.07085 -0.39373,0.108664 -0.13068,0.03742 -0.26216,0.07649 -0.39217,0.116983 -0.12999,0.04062 -0.25931,0.08232 -0.38847,0.125332 -0.1293,0.04325 -0.25823,0.08727 -0.3864,0.133291 -0.12817,0.04607 -0.25563,0.0934 -0.38276,0.142096 -0.12729,0.04879 -0.25339,0.09898 -0.37945,0.150338 -0.12606,0.05141 -0.25207,0.104349 -0.37696,0.158433 -0.12491,0.05404 -0.24947,0.109548 -0.37317,0.166334 -0.12376,0.05676 -0.24647,0.114884 -0.36891,0.174362 -0.12239,0.05938 -0.24409,0.12056 -0.36515,0.182701 -0.12102,0.0621 -0.2413,0.125633 -0.36093,0.190699 -0.0509,0.0276 -0.10113,0.05627 -0.15174,0.08426 0.18469,-0.05073 0.3704,-0.09795 0.55703,-0.14163 0.41199,-0.08659 0.82773,-0.155887 1.24614,-0.207784 0.41849,-0.0519 0.83932,-0.0863 1.26135,-0.103232 0.42205,-0.0171 0.84495,-0.01642 1.26767,0.0019 0.42258,0.01817 0.84458,0.05413 1.26492,0.107294 0.4205,0.05335 0.83906,0.123718 1.25447,0.211633 0.41525,0.08795 0.82709,0.192983 1.23439,0.315117 0.4075,0.121823 0.81011,0.260702 1.20686,0.41585 0.3967,0.155207 0.78722,0.326624 1.17052,0.513951 0.38318,0.187297 0.75882,0.3903 1.12596,0.608493 0.36718,0.21831 0.72554,0.451606 1.07414,0.699315 0.34878,0.247582 0.68754,0.509334 1.01538,0.784624 0.32766,0.275368 0.64415,0.564001 0.94864,0.865162 0.30464,0.301191 0.59701,0.614685 0.87639,0.939647 0.27928,0.324894 0.54533,0.660954 0.79747,1.007375 0.25218,0.346372 0.49025,0.702774 0.71356,1.068321 0.22322,0.365722 0.4315,0.740278 0.62431,1.122697 0.19289,0.382264 0.37016,0.772074 0.53134,1.168394 0.16115,0.39646 0.30608,0.79913 0.43439,1.20698 0.12825,0.40766 0.23977,0.82018 0.33432,1.23641 0.0947,0.41632 0.17229,0.83602 0.23261,1.25806 0.0602,0.4221 0.10311,0.84617 0.12856,1.27112 0.0255,0.42492 0.0334,0.85032 0.024,1.27517 -0.01,0.42479 -0.0365,0.84859 -0.0807,1.27039 -0.0443,0.42197 -0.1059,0.84155 -0.18479,1.25769 -0.0789,0.41596 -0.17496,0.82812 -0.28794,1.23539 -0.11293,0.40744 -0.24262,0.80966 -0.38875,1.205628 -0.14625,0.39592 -0.30864,0.7853 -0.48705,1.16707 -0.1784,0.38165 -0.37255,0.7554 -0.582,1.12028 -0.20955,0.36493 -0.43418,0.72066 -0.67334,1.06629 -0.23904,0.34581 -0.49238,0.68124 -0.7594,1.0054 -0.2671,0.32401 -0.54763,0.63648 -0.84087,0.93664 -2.68805,3.02845 -6.71985,5.82481 -10.36766,6.65353 -0.13778,0.0489 -0.27637,0.0956 -0.41587,0.14131 -0.13949,0.0458 -0.27977,0.0904 -0.42091,0.13265 -0.14113,0.0423 -0.28352,0.0824 -0.42628,0.12136 -0.1428,0.0386 -0.28575,0.0753 -0.43006,0.11073 -0.14452,0.0355 -0.28947,0.0697 -0.43532,0.10119 -0.14573,0.0318 -0.2929,0.0612 -0.44022,0.0895 -0.14726,0.0274 -0.29483,0.0544 -0.44355,0.0791 -0.14857,0.025 -0.29881,0.0469 -0.44893,0.0677 -0.15012,0.0205 -0.30067,0.0388 -0.45213,0.0563 -0.15162,0.016 -0.30399,0.0318 -0.45672,0.0455 -0.15273,0.0137 -0.30567,0.0294 -0.45998,0.0346 l -0.003,-1.2e-4 c -0.15429,0.005 -0.30732,0.017 -0.46089,0.0206 -0.15353,0.004 -0.30662,0.009 -0.45954,0.009 -0.15281,0.002 -0.30521,-6.2e-4 -0.45728,-0.003 -0.15203,-0.003 -0.30394,-0.007 -0.45527,-0.0135 -0.1515,-0.007 -0.30179,-0.0145 -0.4523,-0.0246 -0.15054,-0.01 -0.30036,-0.0226 -0.45001,-0.0366 -0.14957,-0.0141 -0.29905,-0.0308 -0.44776,-0.0487 -0.14893,-0.0178 -0.29724,-0.0365 -0.44504,-0.0581 -0.14786,-0.0213 -0.29553,-0.0451 -0.44227,-0.0704 -0.14671,-0.0255 -0.29289,-0.052 -0.43856,-0.0808 -0.14575,-0.0282 -0.29062,-0.0588 -0.43514,-0.0917 -0.14453,-0.0324 -0.28897,-0.0658 -0.43226,-0.10224 -0.14322,-0.036 -0.28557,-0.0729 -0.42777,-0.11186 -0.14213,-0.0396 -0.28468,-0.0805 -0.42564,-0.12308 -0.14083,-0.0426 -0.28072,-0.0866 -0.42031,-0.13243 -0.13974,-0.046 -0.27904,-0.0947 -0.41725,-0.14392 -0.13817,-0.0492 -0.27531,-0.0996 -0.41214,-0.15221 -0.13682,-0.0526 -0.27345,-0.10678 -0.40884,-0.16264 -0.13522,-0.0559 -0.27001,-0.1135 -0.40381,-0.1727 -0.13386,-0.0591 -0.26626,-0.11968 -0.39854,-0.1817 -0.0729,-0.0342 -0.14498,-0.0704 -0.21732,-0.10564 3.80539,2.38573 9.91756,4.17102 13.97265,3.9838 z"
           sodipodi:nodetypes="cccsccccccccccsccsscscccscccccscccccscccccccsscccscccccccccccccccsccccsccsscccccccscccccccc" />
        <path
           style="fill:#ff8080;fill-opacity:1;stroke:#ffffff;stroke-width:0.54734111;stroke-linecap:round;stroke-linejoin:round;paint-order:stroke markers fill;stroke-dasharray:none"
           d="m 148.15662,69.292822 c 0,0 -4.6986,4.30905 -10.51148,4.6185 -3.49524,0.18608 -6.26884,-0.33385 -8.79713,-1.07422 -2.55902,-0.74937 -5.09101,-2.61518 -5.09101,-2.61518 0,0 4.25256,1.99332 6.7781,2.44317 4.29526,0.76508 7.85744,0.68505 11.84815,-0.53653 3.24843,-0.99437 5.77337,-2.83574 5.77337,-2.83574 z"
           id="path1465"
           sodipodi:nodetypes="csscssc" />
        <path
           id="path1467"
           style="fill:#ff8080;fill-opacity:1;stroke:#ffffff;stroke-width:0.54734111;stroke-linecap:round;stroke-linejoin:round;paint-order:stroke fill markers;stroke-dasharray:none"
           d="m 141.60806,33.893195 c -1.70283,-0.346061 -3.33996,-0.514786 -4.7339,-0.45043 l 1e-4,-4.56e-4 c -15.42155,1.548548 -19.98216,13.748311 -19.80017,21.475665 0.59838,8.582278 6.68861,15.393388 14.75336,16.412538 -6.71645,-2.02045 -11.56688,-8.23889 -12.09758,-15.850458 -0.18197,-7.727356 4.37862,-19.92712 19.80017,-21.475658 l -8e-5,4.47e-4 c 1.09523,-0.05063 2.34091,0.04364 3.65029,0.25386 -0.52683,-0.137042 -1.05257,-0.259896 -1.57218,-0.365557 z"
           sodipodi:nodetypes="sccccccccs" />
        <path
           id="path1469"
           style="fill:#ff8080;fill-opacity:1;stroke:#ffffff;stroke-width:0.54734111;stroke-linecap:round;stroke-linejoin:round;paint-order:stroke fill markers;stroke-dasharray:none"
           d="m 139.03176,77.202082 c 1.70283,0.34607 3.33996,0.51479 4.7339,0.45043 l -1e-4,4.6e-4 c 15.42156,-1.54855 19.98217,-13.74831 19.80018,-21.475668 -0.59838,-8.582269 -6.68861,-15.39338 -14.75336,-16.412535 6.71645,2.020446 11.56688,8.238896 12.09758,15.850465 0.18197,7.727348 -4.37862,19.927118 -19.80018,21.475648 l 9e-5,-4.4e-4 c -1.09524,0.0506 -2.34092,-0.0436 -3.6503,-0.25386 0.52683,0.13704 1.05257,0.25989 1.57218,0.36555 z"
           sodipodi:nodetypes="sccccccccs" />
        <g
           id="g1479"
           transform="matrix(1.7433517,0,0,1.7433517,-219.85241,-117.74496)"
           style="fill:#ff8080;fill-opacity:1;stroke:#ffffff;stroke-width:0.31395909;stroke-dasharray:none;stroke-linejoin:round;stroke-linecap:round">
          <path
             d="m 193.55141,114.12882 h 5.31255 q 0.0688,0 0.0918,0.0574 0.0344,0.0459 -0.0109,0.10327 l -0.84909,1.11299 q -0.14916,0.18359 -0.37866,0.18359 h -2.83412 v 1.83588 h 2.86854 q 0.13769,0 0.13769,0.13768 V 118.73 q 0,0.14917 -0.13769,0.14917 h -2.86854 v 1.82439 h 3.62584 q 0.0574,0 0.0918,0.0459 0.0459,0.0344 0.0459,0.0918 v 1.18184 q 0,0.13769 -0.13769,0.13769 H 193.552 q -0.0574,0 -0.10326,-0.0344 -0.0344,-0.0459 -0.0344,-0.10327 v -7.75656 q 0,-0.0574 0.0344,-0.0918 0.0459,-0.0459 0.10326,-0.0459 z"
             style="font-size:46.3644px;font-family:VALORANT;-inkscape-font-specification:'VALORANT, Normal';fill:#ff8080;fill-opacity:1;stroke-width:0.31395909;stroke-linecap:round;stroke-linejoin:round;paint-order:stroke fill markers;stroke:#ffffff;stroke-dasharray:none"
             id="path1471" />
          <path
             d="m 198.72673,118.11036 q 0,-0.88351 0.32129,-1.6408 0.33274,-0.7573 0.88351,-1.31954 0.56222,-0.56223 1.31952,-0.87204 0.7573,-0.32127 1.62934,-0.3098 0.92941,0.0115 1.70966,0.37865 0.79172,0.36718 1.36543,1.00973 0.0344,0.0459 0.023,0.10327 0,0.0573 -0.0459,0.0918 l -0.90646,0.76877 q -0.0459,0.0344 -0.10327,0.0344 -0.0574,-0.0115 -0.0918,-0.0574 -0.37864,-0.43602 -0.89499,-0.68845 -0.51635,-0.2639 -1.11299,-0.25243 -0.5393,0.0115 -1.0212,0.24095 -0.48193,0.21802 -0.83762,0.60814 -0.35571,0.37865 -0.56224,0.88351 -0.20653,0.50487 -0.20653,1.07858 0,0.57371 0.218,1.07857 0.21801,0.50487 0.58519,0.88351 0.36717,0.37865 0.84909,0.59666 0.48191,0.20654 1.03268,0.20654 0.5737,-0.0115 1.07857,-0.26391 0.50487,-0.25243 0.87204,-0.68845 0.0344,-0.0459 0.0918,-0.0459 0.0574,-0.0115 0.10327,0.0344 l 0.90646,0.76877 q 0.0459,0.0344 0.0459,0.0918 0.0109,0.0573 -0.023,0.10327 -0.58519,0.65403 -1.38838,1.03268 -0.8032,0.36717 -1.75555,0.3557 -0.86057,0 -1.61787,-0.32128 -0.74582,-0.33275 -1.29657,-0.895 -0.55077,-0.5737 -0.86057,-1.34247 -0.30981,-0.76877 -0.30981,-1.65229 z"
             style="font-size:46.3644px;font-family:VALORANT;-inkscape-font-specification:'VALORANT, Normal';fill:#ff8080;fill-opacity:1;stroke-width:0.31395909;stroke-linecap:round;stroke-linejoin:round;paint-order:stroke fill markers;stroke:#ffffff;stroke-dasharray:none"
             id="path1473" />
          <path
             d="m 206.29894,118.11036 q 0,-0.88351 0.32127,-1.6408 0.33276,-0.7573 0.88351,-1.31954 0.56224,-0.56223 1.31954,-0.87204 0.75728,-0.32127 1.62932,-0.3098 0.92941,0.0115 1.70966,0.37865 0.79172,0.36718 1.36542,1.00973 0.0344,0.0459 0.023,0.10327 0,0.0573 -0.0459,0.0918 l -0.90646,0.76877 q -0.0459,0.0344 -0.10327,0.0344 -0.0574,-0.0115 -0.0918,-0.0574 -0.37864,-0.43602 -0.89498,-0.68845 -0.51633,-0.2639 -1.113,-0.25243 -0.53927,0.0115 -1.02118,0.24095 -0.48192,0.21802 -0.83762,0.60814 -0.35571,0.37865 -0.56224,0.88351 -0.20653,0.50487 -0.20653,1.07858 0,0.57371 0.21801,1.07857 0.218,0.50487 0.58519,0.88351 0.36716,0.37865 0.84909,0.59666 0.4819,0.20654 1.03265,0.20654 0.57372,-0.0115 1.07857,-0.26391 0.50488,-0.25243 0.87204,-0.68845 0.0344,-0.0459 0.0918,-0.0459 0.0574,-0.0115 0.10327,0.0344 l 0.90646,0.76877 q 0.0459,0.0344 0.0459,0.0918 0.0109,0.0573 -0.023,0.10327 -0.58517,0.65403 -1.38837,1.03268 -0.80319,0.36717 -1.75555,0.3557 -0.86057,0 -1.61785,-0.32128 -0.74582,-0.33275 -1.29659,-0.895 -0.55077,-0.5737 -0.86057,-1.34247 -0.30979,-0.76877 -0.30979,-1.65229 z"
             style="font-size:46.3644px;font-family:VALORANT;-inkscape-font-specification:'VALORANT, Normal';fill:#ff8080;fill-opacity:1;stroke-width:0.31395909;stroke-linecap:round;stroke-linejoin:round;paint-order:stroke fill markers;stroke:#ffffff;stroke-dasharray:none"
             id="path1475" />
          <path
             d="m 213.97438,116.48103 q 0,-0.53929 0.21802,-0.99826 0.22948,-0.45896 0.60814,-0.79171 0.39011,-0.33276 0.89497,-0.52782 0.51635,-0.19506 1.09006,-0.19506 0.89499,0 1.54902,0.32128 0.66549,0.3098 0.99826,0.72287 0.0803,0.10327 -0.0109,0.18359 l -0.79172,0.82614 q -0.0459,0.0459 -0.11474,0.0459 -0.0574,0 -0.10327,-0.0574 -0.10326,-0.11473 -0.2639,-0.22948 -0.14916,-0.11474 -0.35571,-0.20654 -0.19506,-0.10326 -0.42454,-0.16063 -0.22948,-0.0573 -0.47045,-0.0573 -0.28685,0 -0.5278,0.0918 -0.22948,0.0803 -0.39013,0.218 -0.16064,0.13769 -0.25243,0.32129 -0.0918,0.18358 -0.0918,0.39012 0,0.33274 0.218,0.57371 0.21801,0.24095 0.65404,0.33274 l 1.12446,0.21802 q 0.55077,0.10326 0.96383,0.33275 0.42456,0.21801 0.69993,0.52781 0.28687,0.3098 0.43603,0.69993 0.14916,0.37865 0.14916,0.80319 0,0.45897 -0.19505,0.90646 -0.1836,0.4475 -0.56225,0.80319 -0.36716,0.3557 -0.90646,0.57372 -0.53929,0.20653 -1.2392,0.20653 -0.4934,0 -0.92943,-0.10326 -0.42454,-0.10327 -0.78023,-0.26391 -0.34424,-0.17211 -0.60814,-0.36718 -0.2639,-0.20653 -0.43603,-0.40159 -0.0803,-0.0803 0,-0.18359 l 0.72288,-0.92941 q 0.0344,-0.0574 0.0918,-0.0574 0.0688,-0.0115 0.11474,0.0344 0.16064,0.14916 0.35571,0.3098 0.19506,0.14917 0.42454,0.27539 0.2295,0.12621 0.4934,0.20653 0.2639,0.0803 0.56224,0.0803 0.63107,0 0.96383,-0.27538 0.33275,-0.27538 0.33275,-0.71141 0,-0.34422 -0.25243,-0.59665 -0.24097,-0.26391 -0.72288,-0.3557 l -1.12446,-0.22948 q -0.96385,-0.19507 -1.53755,-0.79173 -0.57372,-0.59665 -0.57372,-1.51459 z"
             style="font-size:46.3644px;font-family:VALORANT;-inkscape-font-specification:'VALORANT, Normal';fill:#ff8080;fill-opacity:1;stroke-width:0.31395909;stroke-linecap:round;stroke-linejoin:round;paint-order:stroke fill markers;stroke:#ffffff;stroke-dasharray:none"
             id="path1477" />
        </g>
      </g>
      <g
         id="g1453">
        <circle
           style="fill:#224870;fill-opacity:1;stroke:none;stroke-width:0.786497;stroke-linecap:round;stroke-linejoin:round;stroke-opacity:1;paint-order:stroke fill markers"
           id="circle4466"
           cx="139.9593"
           cy="55.64283"
           r="9.7953777"
           inkscape:export-filename="../ECCS_Logo_deg.png"
           inkscape:export-xdpi="300"
           inkscape:export-ydpi="300" />
        <path
           id="path4480"
           style="fill:url(#linearGradient7743);fill-opacity:1;stroke:none;stroke-width:1.00679;stroke-linecap:round;stroke-linejoin:round;stroke-opacity:1;paint-order:stroke fill markers"
           d="m 140.32014,43.008774 a 12.53903,12.53903 0 0 0 -12.53929,12.53883 12.53903,12.53903 0 0 0 12.53929,12.538838 12.53903,12.53903 0 0 0 12.53885,-12.538838 12.53903,12.53903 0 0 0 -12.53885,-12.53883 z m 0,3.820067 a 8.7188721,8.7188721 0 0 1 8.71878,8.718763 8.7188721,8.7188721 0 0 1 -8.71878,8.718778 8.7188721,8.7188721 0 0 1 -8.71876,-8.718778 8.7188721,8.7188721 0 0 1 8.71876,-8.718763 z" />
        <path
           id="path4470"
           style="fill:#224870;fill-opacity:1;stroke:none;stroke-width:0.672868;stroke-linecap:round;stroke-linejoin:round;paint-order:stroke fill markers"
           d="m 139.11027,33.789915 c -15.42155,1.548548 -19.98218,13.748594 -19.80021,21.475959 0.65689,9.421158 7.93116,16.709148 17.17115,16.542548 0.13551,-0.0127 0.27082,-0.0254 0.40605,-0.0402 0.1353,-0.0151 0.27009,-0.0327 0.40509,-0.0494 0.13492,-0.0173 0.26942,-0.0365 0.40393,-0.0571 0.13431,-0.0219 0.26896,-0.0432 0.40305,-0.0667 0.13387,-0.024 0.26797,-0.0485 0.40155,-0.075 0.13345,-0.0263 0.26709,-0.0546 0.40007,-0.0838 0.13306,-0.0289 0.26525,-0.06 0.39763,-0.0918 0.13228,-0.0321 0.26401,-0.0656 0.39566,-0.10025 0.13166,-0.0351 0.26285,-0.0708 0.39373,-0.10866 0.13069,-0.0374 0.26216,-0.0765 0.39218,-0.11699 0.12998,-0.0406 0.2593,-0.0823 0.38846,-0.12533 0.12931,-0.0432 0.25823,-0.0873 0.3864,-0.13329 0.12817,-0.0461 0.25563,-0.0934 0.38276,-0.14209 0.12729,-0.0488 0.2534,-0.099 0.37945,-0.15034 0.12606,-0.0514 0.25207,-0.10435 0.37696,-0.15843 0.12491,-0.054 0.24947,-0.10955 0.37317,-0.16634 0.12376,-0.0568 0.24647,-0.11488 0.36891,-0.17436 0.1224,-0.0594 0.24409,-0.12056 0.36515,-0.1827 0.12102,-0.0621 0.2413,-0.12563 0.36093,-0.1907 0.0509,-0.0276 0.10113,-0.0563 0.15174,-0.0843 -0.18469,0.0507 -0.3704,0.098 -0.55703,0.14163 -0.41199,0.0866 -0.82773,0.15588 -1.24614,0.20778 -0.41849,0.0519 -0.83932,0.0863 -1.26135,0.10323 -0.42205,0.0171 -0.84495,0.0164 -1.26767,-0.002 -0.42258,-0.0182 -0.84458,-0.0541 -1.26492,-0.10729 -0.4205,-0.0534 -0.83906,-0.12372 -1.25447,-0.21164 -0.41525,-0.0879 -0.82709,-0.19298 -1.23439,-0.31511 -0.4075,-0.12183 -0.8101,-0.26071 -1.20686,-0.41585 -0.3967,-0.15521 -0.78721,-0.32663 -1.17051,-0.51395 -0.38318,-0.1873 -0.75882,-0.39031 -1.12596,-0.6085 -0.36718,-0.21831 -0.72554,-0.4516 -1.07413,-0.69931 -0.34879,-0.24758 -0.68755,-0.50934 -1.01539,-0.78463 -0.32766,-0.27536 -0.64415,-0.564 -0.94863,-0.86516 -0.30464,-0.30119 -0.59702,-0.61468 -0.8764,-0.93965 -0.27928,-0.32489 -0.54533,-0.66095 -0.79746,-1.00737 -0.25219,-0.34637 -0.49026,-0.70277 -0.71357,-1.06832 -0.22322,-0.36572 -0.4315,-0.740278 -0.62431,-1.122698 -0.19289,-0.38226 -0.37016,-0.77208 -0.53134,-1.16839 -0.16115,-0.39646 -0.30608,-0.79914 -0.43439,-1.20698 -0.12825,-0.40767 -0.23977,-0.82018 -0.33432,-1.23641 -0.0947,-0.41632 -0.17229,-0.83602 -0.23261,-1.25806 -0.0603,-0.4221 -0.1031,-0.84617 -0.12856,-1.27112 -0.0255,-0.42492 -0.0334,-0.85032 -0.024,-1.27517 0.01,-0.4248 0.0365,-0.8486 0.0807,-1.27039 0.0443,-0.42198 0.1059,-0.84155 0.18479,-1.25769 0.0789,-0.41596 0.17496,-0.82813 0.28794,-1.2354 0.11293,-0.407431 0.24262,-0.809657 0.38875,-1.205623 0.14625,-0.395918 0.30864,-0.785305 0.48705,-1.167072 0.17841,-0.381651 0.37256,-0.7554 0.582,-1.120277 0.20955,-0.364934 0.43418,-0.720666 0.67334,-1.066289 0.23904,-0.345809 0.49238,-0.681248 0.7594,-1.005403 0.2671,-0.32401 0.54763,-0.636483 0.84087,-0.936643 2.68806,-3.028444 6.71984,-5.824806 10.36765,-6.653524 0.13778,-0.04888 0.27637,-0.09563 0.41587,-0.141309 0.13949,-0.04577 0.27977,-0.09038 0.42091,-0.132659 0.14113,-0.04228 0.28352,-0.08241 0.42629,-0.121356 0.14279,-0.03858 0.28574,-0.07532 0.43005,-0.110725 0.14452,-0.03547 0.28947,-0.06968 0.43532,-0.10119 0.14573,-0.03178 0.2929,-0.06123 0.44022,-0.08951 0.14726,-0.02741 0.29483,-0.05442 0.44355,-0.07911 0.14857,-0.02498 0.29881,-0.04694 0.44893,-0.06764 0.15012,-0.02051 0.30067,-0.03878 0.45213,-0.05627 0.15162,-0.01604 0.30399,-0.03178 0.45672,-0.04548 0.15273,-0.0137 0.30567,-0.02945 0.45998,-0.0346 l 0.003,1.17e-4 c 0.15429,-0.0049 0.30732,-0.01701 0.46089,-0.0206 0.15353,-0.0039 0.30662,-0.0087 0.45954,-0.0087 0.15281,-0.0019 0.30521,6.22e-4 0.45728,0.0029 0.15203,0.0029 0.30394,0.0068 0.45527,0.01351 0.1515,0.0068 0.30179,0.01448 0.4523,0.02459 0.15055,0.0097 0.30037,0.02255 0.45002,0.03664 0.14957,0.01409 0.29905,0.03081 0.44776,0.04869 0.14893,0.01779 0.29724,0.03654 0.44504,0.05812 0.14786,0.02128 0.29553,0.0451 0.44227,0.07036 0.14671,0.02546 0.29289,0.052 0.43856,0.08076 0.14575,0.02818 0.29062,0.0588 0.43514,0.09165 0.14453,0.03236 0.28897,0.0658 0.43226,0.10224 0.14322,0.03596 0.28557,0.07289 0.42777,0.111861 0.14213,0.03956 0.28468,0.08047 0.42564,0.123077 0.14083,0.04257 0.28072,0.08659 0.42031,0.132436 0.13974,0.04597 0.27904,0.09466 0.41725,0.143913 0.13817,0.04918 0.27531,0.09964 0.41214,0.152214 0.13682,0.05258 0.27345,0.106778 0.40884,0.162641 0.13522,0.05588 0.27001,0.113494 0.40381,0.1727 0.13386,0.05909 0.26626,0.119676 0.39854,0.1817 0.0729,0.03421 0.14498,0.07036 0.21732,0.105641 -3.80539,-2.38573 -9.91757,-4.171024 -13.97266,-3.983804 z"
           sodipodi:nodetypes="cccsccccccccccsccsscscccscccccscccccscccccccsscccscccccccccccccccsccccsccsscccccccscccccccc" />
        <path
           style="fill:#38c0ac;fill-opacity:1;stroke:none;stroke-width:2.98295;stroke-linecap:round;stroke-linejoin:round;paint-order:stroke markers fill"
           d="m 132.48321,41.802462 c 0,0 4.69859,-4.309052 10.51147,-4.618501 3.49524,-0.186079 6.26886,0.333855 8.79714,1.074227 2.55902,0.749364 5.09101,2.615176 5.09101,2.615176 0,0 -4.25256,-1.993319 -6.7781,-2.443173 -4.29527,-0.765077 -7.85745,-0.685046 -11.84816,0.536531 -3.24843,0.994368 -5.77336,2.83574 -5.77336,2.83574 z"
           id="path4472"
           sodipodi:nodetypes="csscssc" />
        <path
           id="path4476"
           style="fill:#224870;fill-opacity:1;stroke:none;stroke-width:0.672868;stroke-linecap:round;stroke-linejoin:round;paint-order:stroke fill markers"
           d="m 141.52956,77.305362 c 15.42155,-1.54854 19.98218,-13.74859 19.80021,-21.475948 -0.65688,-9.421161 -7.93116,-16.709155 -17.17116,-16.542558 -0.13551,0.01273 -0.27082,0.02536 -0.40605,0.04023 -0.13529,0.01506 -0.27009,0.03265 -0.40509,0.04937 -0.13492,0.0173 -0.26942,0.03654 -0.40393,0.05715 -0.13431,0.02187 -0.26896,0.04325 -0.40305,0.06667 -0.13387,0.02401 -0.26797,0.0485 -0.40155,0.07503 -0.13345,0.02634 -0.26708,0.05462 -0.40006,0.08377 -0.13307,0.02886 -0.26525,0.05996 -0.39764,0.09184 -0.13228,0.03207 -0.26401,0.0656 -0.39566,0.100248 -0.13166,0.03508 -0.26285,0.07085 -0.39373,0.108664 -0.13068,0.03742 -0.26216,0.07649 -0.39217,0.116983 -0.12999,0.04062 -0.25931,0.08232 -0.38847,0.125332 -0.1293,0.04325 -0.25823,0.08727 -0.3864,0.133291 -0.12817,0.04607 -0.25563,0.0934 -0.38276,0.142096 -0.12729,0.04879 -0.25339,0.09898 -0.37945,0.150338 -0.12606,0.05141 -0.25207,0.104349 -0.37696,0.158433 -0.12491,0.05404 -0.24947,0.109548 -0.37317,0.166334 -0.12376,0.05676 -0.24647,0.114884 -0.36891,0.174362 -0.12239,0.05938 -0.24409,0.12056 -0.36515,0.182701 -0.12102,0.0621 -0.2413,0.125633 -0.36093,0.190699 -0.0509,0.0276 -0.10113,0.05627 -0.15174,0.08426 0.18469,-0.05073 0.3704,-0.09795 0.55703,-0.14163 0.41199,-0.08659 0.82773,-0.155887 1.24614,-0.207784 0.41849,-0.0519 0.83932,-0.0863 1.26135,-0.103232 0.42205,-0.0171 0.84495,-0.01642 1.26767,0.0019 0.42258,0.01817 0.84458,0.05413 1.26492,0.107294 0.4205,0.05335 0.83906,0.123718 1.25447,0.211633 0.41525,0.08795 0.82709,0.192983 1.23439,0.315117 0.4075,0.121823 0.81011,0.260702 1.20686,0.41585 0.3967,0.155207 0.78722,0.326624 1.17052,0.513951 0.38318,0.187297 0.75882,0.3903 1.12596,0.608493 0.36718,0.21831 0.72554,0.451606 1.07414,0.699315 0.34878,0.247582 0.68754,0.509334 1.01538,0.784624 0.32766,0.275368 0.64415,0.564001 0.94864,0.865162 0.30464,0.301191 0.59701,0.614685 0.87639,0.939647 0.27928,0.324894 0.54533,0.660954 0.79747,1.007375 0.25218,0.346372 0.49025,0.702774 0.71356,1.068321 0.22322,0.365722 0.4315,0.740278 0.62431,1.122697 0.19289,0.382264 0.37016,0.772074 0.53134,1.168394 0.16115,0.39646 0.30608,0.79913 0.43439,1.20698 0.12825,0.40766 0.23977,0.82018 0.33432,1.23641 0.0947,0.41632 0.17229,0.83602 0.23261,1.25806 0.0602,0.4221 0.10311,0.84617 0.12856,1.27112 0.0255,0.42492 0.0334,0.85032 0.024,1.27517 -0.01,0.42479 -0.0365,0.84859 -0.0807,1.27039 -0.0443,0.42197 -0.1059,0.84155 -0.18479,1.25769 -0.0789,0.41596 -0.17496,0.82812 -0.28794,1.23539 -0.11293,0.40744 -0.24262,0.80966 -0.38875,1.205628 -0.14625,0.39592 -0.30864,0.7853 -0.48705,1.16707 -0.1784,0.38165 -0.37255,0.7554 -0.582,1.12028 -0.20955,0.36493 -0.43418,0.72066 -0.67334,1.06629 -0.23904,0.34581 -0.49238,0.68124 -0.7594,1.0054 -0.2671,0.32401 -0.54763,0.63648 -0.84087,0.93664 -2.68805,3.02845 -6.71985,5.82481 -10.36766,6.65353 -0.13778,0.0489 -0.27637,0.0956 -0.41587,0.14131 -0.13949,0.0458 -0.27977,0.0904 -0.42091,0.13265 -0.14113,0.0423 -0.28352,0.0824 -0.42628,0.12136 -0.1428,0.0386 -0.28575,0.0753 -0.43006,0.11073 -0.14452,0.0355 -0.28947,0.0697 -0.43532,0.10119 -0.14573,0.0318 -0.2929,0.0612 -0.44022,0.0895 -0.14726,0.0274 -0.29483,0.0544 -0.44355,0.0791 -0.14857,0.025 -0.29881,0.0469 -0.44893,0.0677 -0.15012,0.0205 -0.30067,0.0388 -0.45213,0.0563 -0.15162,0.016 -0.30399,0.0318 -0.45672,0.0455 -0.15273,0.0137 -0.30567,0.0294 -0.45998,0.0346 l -0.003,-1.2e-4 c -0.15429,0.005 -0.30732,0.017 -0.46089,0.0206 -0.15353,0.004 -0.30662,0.009 -0.45954,0.009 -0.15281,0.002 -0.30521,-6.2e-4 -0.45728,-0.003 -0.15203,-0.003 -0.30394,-0.007 -0.45527,-0.0135 -0.1515,-0.007 -0.30179,-0.0145 -0.4523,-0.0246 -0.15054,-0.01 -0.30036,-0.0226 -0.45001,-0.0366 -0.14957,-0.0141 -0.29905,-0.0308 -0.44776,-0.0487 -0.14893,-0.0178 -0.29724,-0.0365 -0.44504,-0.0581 -0.14786,-0.0213 -0.29553,-0.0451 -0.44227,-0.0704 -0.14671,-0.0255 -0.29289,-0.052 -0.43856,-0.0808 -0.14575,-0.0282 -0.29062,-0.0588 -0.43514,-0.0917 -0.14453,-0.0324 -0.28897,-0.0658 -0.43226,-0.10224 -0.14322,-0.036 -0.28557,-0.0729 -0.42777,-0.11186 -0.14213,-0.0396 -0.28468,-0.0805 -0.42564,-0.12308 -0.14083,-0.0426 -0.28072,-0.0866 -0.42031,-0.13243 -0.13974,-0.046 -0.27904,-0.0947 -0.41725,-0.14392 -0.13817,-0.0492 -0.27531,-0.0996 -0.41214,-0.15221 -0.13682,-0.0526 -0.27345,-0.10678 -0.40884,-0.16264 -0.13522,-0.0559 -0.27001,-0.1135 -0.40381,-0.1727 -0.13386,-0.0591 -0.26626,-0.11968 -0.39854,-0.1817 -0.0729,-0.0342 -0.14498,-0.0704 -0.21732,-0.10564 3.80539,2.38573 9.91756,4.17102 13.97265,3.9838 z"
           sodipodi:nodetypes="cccsccccccccccsccsscscccscccccscccccscccccccsscccscccccccccccccccsccccsccsscccccccscccccccc" />
        <path
           style="fill:#38c0ac;fill-opacity:1;stroke:none;stroke-width:2.98295;stroke-linecap:round;stroke-linejoin:round;paint-order:stroke markers fill"
           d="m 148.15662,69.292822 c 0,0 -4.6986,4.30905 -10.51148,4.6185 -3.49524,0.18608 -6.26884,-0.33385 -8.79713,-1.07422 -2.55902,-0.74937 -5.09101,-2.61518 -5.09101,-2.61518 0,0 4.25256,1.99332 6.7781,2.44317 4.29526,0.76508 7.85744,0.68505 11.84815,-0.53653 3.24843,-0.99437 5.77337,-2.83574 5.77337,-2.83574 z"
           id="path4478"
           sodipodi:nodetypes="csscssc" />
        <path
           id="path4468"
           style="fill:url(#linearGradient5714);fill-opacity:1;stroke:none;stroke-width:0.672868;stroke-linecap:round;stroke-linejoin:round;paint-order:stroke fill markers"
           d="m 141.60806,33.893195 c -1.70283,-0.346061 -3.33996,-0.514786 -4.7339,-0.45043 l 1e-4,-4.56e-4 c -15.42155,1.548548 -19.98216,13.748311 -19.80017,21.475665 0.59838,8.582278 6.68861,15.393388 14.75336,16.412538 -6.71645,-2.02045 -11.56688,-8.23889 -12.09758,-15.850458 -0.18197,-7.727356 4.37862,-19.92712 19.80017,-21.475658 l -8e-5,4.47e-4 c 1.09523,-0.05063 2.34091,0.04364 3.65029,0.25386 -0.52683,-0.137042 -1.05257,-0.259896 -1.57218,-0.365557 z"
           sodipodi:nodetypes="sccccccccs" />
        <path
           id="path4474"
           style="fill:#3dc4b7;fill-opacity:1;stroke:none;stroke-width:0.672868;stroke-linecap:round;stroke-linejoin:round;paint-order:stroke fill markers"
           d="m 139.03176,77.202082 c 1.70283,0.34607 3.33996,0.51479 4.7339,0.45043 l -1e-4,4.6e-4 c 15.42156,-1.54855 19.98217,-13.74831 19.80018,-21.475668 -0.59838,-8.582269 -6.68861,-15.39338 -14.75336,-16.412535 6.71645,2.020446 11.56688,8.238896 12.09758,15.850465 0.18197,7.727348 -4.37862,19.927118 -19.80018,21.475648 l 9e-5,-4.4e-4 c -1.09524,0.0506 -2.34092,-0.0436 -3.6503,-0.25386 0.52683,0.13704 1.05257,0.25989 1.57218,0.36555 z"
           sodipodi:nodetypes="sccccccccs" />
        <g
           id="g4492"
           transform="matrix(1.7433517,0,0,1.7433517,-219.85241,-117.74496)"
           style="fill:#224870;fill-opacity:1">
          <path
             d="m 193.55141,114.12882 h 5.31255 q 0.0688,0 0.0918,0.0574 0.0344,0.0459 -0.0109,0.10327 l -0.84909,1.11299 q -0.14916,0.18359 -0.37866,0.18359 h -2.83412 v 1.83588 h 2.86854 q 0.13769,0 0.13769,0.13768 V 118.73 q 0,0.14917 -0.13769,0.14917 h -2.86854 v 1.82439 h 3.62584 q 0.0574,0 0.0918,0.0459 0.0459,0.0344 0.0459,0.0918 v 1.18184 q 0,0.13769 -0.13769,0.13769 H 193.552 q -0.0574,0 -0.10326,-0.0344 -0.0344,-0.0459 -0.0344,-0.10327 v -7.75656 q 0,-0.0574 0.0344,-0.0918 0.0459,-0.0459 0.10326,-0.0459 z"
             style="font-size:46.3644px;font-family:VALORANT;-inkscape-font-specification:'VALORANT, Normal';fill:#224870;fill-opacity:1;stroke-width:1.10007;stroke-linecap:round;stroke-linejoin:round;paint-order:stroke fill markers"
             id="path4484" />
          <path
             d="m 198.72673,118.11036 q 0,-0.88351 0.32129,-1.6408 0.33274,-0.7573 0.88351,-1.31954 0.56222,-0.56223 1.31952,-0.87204 0.7573,-0.32127 1.62934,-0.3098 0.92941,0.0115 1.70966,0.37865 0.79172,0.36718 1.36543,1.00973 0.0344,0.0459 0.023,0.10327 0,0.0573 -0.0459,0.0918 l -0.90646,0.76877 q -0.0459,0.0344 -0.10327,0.0344 -0.0574,-0.0115 -0.0918,-0.0574 -0.37864,-0.43602 -0.89499,-0.68845 -0.51635,-0.2639 -1.11299,-0.25243 -0.5393,0.0115 -1.0212,0.24095 -0.48193,0.21802 -0.83762,0.60814 -0.35571,0.37865 -0.56224,0.88351 -0.20653,0.50487 -0.20653,1.07858 0,0.57371 0.218,1.07857 0.21801,0.50487 0.58519,0.88351 0.36717,0.37865 0.84909,0.59666 0.48191,0.20654 1.03268,0.20654 0.5737,-0.0115 1.07857,-0.26391 0.50487,-0.25243 0.87204,-0.68845 0.0344,-0.0459 0.0918,-0.0459 0.0574,-0.0115 0.10327,0.0344 l 0.90646,0.76877 q 0.0459,0.0344 0.0459,0.0918 0.0109,0.0573 -0.023,0.10327 -0.58519,0.65403 -1.38838,1.03268 -0.8032,0.36717 -1.75555,0.3557 -0.86057,0 -1.61787,-0.32128 -0.74582,-0.33275 -1.29657,-0.895 -0.55077,-0.5737 -0.86057,-1.34247 -0.30981,-0.76877 -0.30981,-1.65229 z"
             style="font-size:46.3644px;font-family:VALORANT;-inkscape-font-specification:'VALORANT, Normal';fill:#224870;fill-opacity:1;stroke-width:1.10007;stroke-linecap:round;stroke-linejoin:round;paint-order:stroke fill markers"
             id="path4486" />
          <path
             d="m 206.29894,118.11036 q 0,-0.88351 0.32127,-1.6408 0.33276,-0.7573 0.88351,-1.31954 0.56224,-0.56223 1.31954,-0.87204 0.75728,-0.32127 1.62932,-0.3098 0.92941,0.0115 1.70966,0.37865 0.79172,0.36718 1.36542,1.00973 0.0344,0.0459 0.023,0.10327 0,0.0573 -0.0459,0.0918 l -0.90646,0.76877 q -0.0459,0.0344 -0.10327,0.0344 -0.0574,-0.0115 -0.0918,-0.0574 -0.37864,-0.43602 -0.89498,-0.68845 -0.51633,-0.2639 -1.113,-0.25243 -0.53927,0.0115 -1.02118,0.24095 -0.48192,0.21802 -0.83762,0.60814 -0.35571,0.37865 -0.56224,0.88351 -0.20653,0.50487 -0.20653,1.07858 0,0.57371 0.21801,1.07857 0.218,0.50487 0.58519,0.88351 0.36716,0.37865 0.84909,0.59666 0.4819,0.20654 1.03265,0.20654 0.57372,-0.0115 1.07857,-0.26391 0.50488,-0.25243 0.87204,-0.68845 0.0344,-0.0459 0.0918,-0.0459 0.0574,-0.0115 0.10327,0.0344 l 0.90646,0.76877 q 0.0459,0.0344 0.0459,0.0918 0.0109,0.0573 -0.023,0.10327 -0.58517,0.65403 -1.38837,1.03268 -0.80319,0.36717 -1.75555,0.3557 -0.86057,0 -1.61785,-0.32128 -0.74582,-0.33275 -1.29659,-0.895 -0.55077,-0.5737 -0.86057,-1.34247 -0.30979,-0.76877 -0.30979,-1.65229 z"
             style="font-size:46.3644px;font-family:VALORANT;-inkscape-font-specification:'VALORANT, Normal';fill:#224870;fill-opacity:1;stroke-width:1.10007;stroke-linecap:round;stroke-linejoin:round;paint-order:stroke fill markers"
             id="path4488" />
          <path
             d="m 213.97438,116.48103 q 0,-0.53929 0.21802,-0.99826 0.22948,-0.45896 0.60814,-0.79171 0.39011,-0.33276 0.89497,-0.52782 0.51635,-0.19506 1.09006,-0.19506 0.89499,0 1.54902,0.32128 0.66549,0.3098 0.99826,0.72287 0.0803,0.10327 -0.0109,0.18359 l -0.79172,0.82614 q -0.0459,0.0459 -0.11474,0.0459 -0.0574,0 -0.10327,-0.0574 -0.10326,-0.11473 -0.2639,-0.22948 -0.14916,-0.11474 -0.35571,-0.20654 -0.19506,-0.10326 -0.42454,-0.16063 -0.22948,-0.0573 -0.47045,-0.0573 -0.28685,0 -0.5278,0.0918 -0.22948,0.0803 -0.39013,0.218 -0.16064,0.13769 -0.25243,0.32129 -0.0918,0.18358 -0.0918,0.39012 0,0.33274 0.218,0.57371 0.21801,0.24095 0.65404,0.33274 l 1.12446,0.21802 q 0.55077,0.10326 0.96383,0.33275 0.42456,0.21801 0.69993,0.52781 0.28687,0.3098 0.43603,0.69993 0.14916,0.37865 0.14916,0.80319 0,0.45897 -0.19505,0.90646 -0.1836,0.4475 -0.56225,0.80319 -0.36716,0.3557 -0.90646,0.57372 -0.53929,0.20653 -1.2392,0.20653 -0.4934,0 -0.92943,-0.10326 -0.42454,-0.10327 -0.78023,-0.26391 -0.34424,-0.17211 -0.60814,-0.36718 -0.2639,-0.20653 -0.43603,-0.40159 -0.0803,-0.0803 0,-0.18359 l 0.72288,-0.92941 q 0.0344,-0.0574 0.0918,-0.0574 0.0688,-0.0115 0.11474,0.0344 0.16064,0.14916 0.35571,0.3098 0.19506,0.14917 0.42454,0.27539 0.2295,0.12621 0.4934,0.20653 0.2639,0.0803 0.56224,0.0803 0.63107,0 0.96383,-0.27538 0.33275,-0.27538 0.33275,-0.71141 0,-0.34422 -0.25243,-0.59665 -0.24097,-0.26391 -0.72288,-0.3557 l -1.12446,-0.22948 q -0.96385,-0.19507 -1.53755,-0.79173 -0.57372,-0.59665 -0.57372,-1.51459 z"
             style="font-size:46.3644px;font-family:VALORANT;-inkscape-font-specification:'VALORANT, Normal';fill:#224870;fill-opacity:1;stroke-width:1.10007;stroke-linecap:round;stroke-linejoin:round;paint-order:stroke fill markers"
             id="path4490" />
        </g>
      </g>
    </g>
  </g>
</svg>
